<svg id="visual" viewBox="0 0 900 600" width="900" height="600" xmlns="http://www.w3.org/2000/svg" xmlns:xlink="http://www.w3.org/1999/xlink" version="1.1"><rect x="0" y="0" width="900" height="600" fill="#FFf"></rect><g transform="translate(429.1249099288054 296.9594290995978)"><path d="M94.2 -159.7C125.1 -145.4 155.2 -126.2 182.1 -98.8C208.9 -71.3 232.4 -35.7 244.9 7.2C257.3 50 258.5 100 235.8 134.5C213 169 166.3 188 123 194.2C79.7 200.5 39.8 194 3.2 188.5C-33.5 183 -67 178.6 -95.6 163.8C-124.2 149 -147.8 124 -163.1 95C-178.3 66 -185.2 33 -195.5 -6C-205.9 -45 -219.9 -90 -206.3 -121.9C-192.7 -153.8 -151.6 -172.6 -112.6 -182.3C-73.7 -191.9 -36.8 -192.5 -2.6 -188C31.7 -183.5 63.3 -174 94.2 -159.7" fill="#b2e9ff"></path></g></svg>