        <svg id="visual" viewBox="0 0 1200 120" width="1200" height="120" xmlns="http://www.w3.org/2000/svg" xmlns:xlink="http://www.w3.org/1999/xlink" version="1.1"><rect x="0" y="0" width="1200" height="120" fill="#ffffff00"></rect><path d="M0 85L40 89.7C80 94.3 160 103.7 240 106.8C320 110 400 107 480 99.8C560 92.7 640 81.3 720 71.7C800 62 880 54 960 56.7C1040 59.3 1120 72.7 1160 79.3L1200 86L1200 121L1160 121C1120 121 1040 121 960 121C880 121 800 121 720 121C640 121 560 121 480 121C400 121 320 121 240 121C160 121 80 121 40 121L0 121Z" fill="#00b7ff" stroke-linecap="round" stroke-linejoin="miter"></path></svg>
