<svg id="visual" viewBox="0 0 1200 100" width="1200" height="100" xmlns="http://www.w3.org/2000/svg" xmlns:xlink="http://www.w3.org/1999/xlink" version="1.1"><rect x="0" y="0" width="1200" height="100" fill="#0066FF"></rect><path d="M0 74L40 65C80 56 160 38 240 27.5C320 17 400 14 480 12C560 10 640 9 720 17.8C800 26.7 880 45.3 960 48.8C1040 52.3 1120 40.7 1160 34.8L1200 29L1200 0L1160 0C1120 0 1040 0 960 0C880 0 800 0 720 0C640 0 560 0 480 0C400 0 320 0 240 0C160 0 80 0 40 0L0 0Z" fill="#000" stroke-linecap="round" stroke-linejoin="miter"></path></svg>